<svg xmlns="http://www.w3.org/2000/svg"  viewBox="0 0 40 40" width="40px" height="40px"><path fill="#ffeb80" stroke="#8b75a1" stroke-linecap="round" stroke-miterlimit="10" d="M23.392 8.402C21.519 8.402 20 6.874 20 5s1.626-3.5 3.5-3.5M16.607 10.161C18.481 10.161 20 8.874 20 7s-1.626-3.5-3.5-3.5"/><path fill="#ffeb80" d="M20,37.5c-6.565,0-11.519-5.768-13.767-10.707L6.1,26.5H5c-1.93,0-3.5-1.57-3.5-3.5 c0-1.592,1.087-2.981,2.644-3.379l0.366-0.094l0.011-0.377C4.729,11.496,11.529,5.5,20,5.5s15.271,5.996,15.479,13.65l0.011,0.377 l0.366,0.094C37.413,20.019,38.5,21.408,38.5,23c0,1.93-1.57,3.5-3.5,3.5h-1.1l-0.133,0.293C31.519,31.732,26.565,37.5,20,37.5z"/><path fill="#ffeb80" d="M20,6c8.061,0,14.781,5.905,14.98,13.164l0.021,0.754l0.731,0.187C37.067,20.447,38,21.637,38,23 c0,1.654-1.346,3-3,3h-0.778h-0.644l-0.267,0.586C30.953,31.77,25.922,37,20,37c-5.922,0-10.953-5.23-13.312-10.414L6.421,26H5.778 H5c-1.654,0-3-1.346-3-3c0-1.363,0.933-2.553,2.268-2.895l0.731-0.187l0.021-0.754C5.219,11.905,11.939,6,20,6 M20,5 C11.299,5,4.235,11.298,4.02,19.137C2.293,19.578,1,21.14,1,23c0,2.2,1.8,4,4,4h0.778C8.436,32.842,13.805,38,20,38 s11.564-5.158,14.222-11H35c2.2,0,4-1.8,4-4c0-1.86-1.293-3.422-3.02-3.863C35.765,11.298,28.701,5,20,5L20,5z"/><path fill="#000000" d="M20,34.5c-4.1,0-7.391-3.213-7.49-7.314l-0.007-0.281l-0.243-0.14C10.558,25.781,9.5,23.956,9.5,22 c0-3.032,2.467-5.5,5.5-5.5c1.846,0,3.56,0.921,4.583,2.462L20,19.589l0.417-0.627C21.44,17.421,23.154,16.5,25,16.5 c3.033,0,5.5,2.468,5.5,5.5c0,1.956-1.058,3.781-2.76,4.765l-0.243,0.14l-0.007,0.281C27.391,31.287,24.1,34.5,20,34.5z"/><path fill="#000000" d="M25,17c2.757,0,5,2.243,5,5c0,1.779-0.962,3.438-2.51,4.331l-0.486,0.281l-0.014,0.561 C26.897,31.001,23.826,34,20,34s-6.897-2.999-6.99-6.828l-0.014-0.561l-0.486-0.281C10.962,25.438,10,23.779,10,22 c0-2.757,2.243-5,5-5c1.678,0,3.236,0.837,4.167,2.239L20,20.494l0.833-1.254C21.764,17.837,23.322,17,25,17 M25,16 c-2.088,0-3.925,1.068-5,2.686C18.925,17.068,17.088,16,15,16c-3.314,0-6,2.686-6,6c0,2.224,1.213,4.16,3.01,5.197 C12.115,31.523,15.648,35,20,35s7.885-3.477,7.99-7.803C29.787,26.16,31,24.224,31,22C31,18.686,28.314,16,25,16L25,16z"/><path fill="#ffeb80" d="M25 20A2 2 0 1 0 25 24 2 2 0 1 0 25 20zM15 20A2 2 0 1 0 15 24 2 2 0 1 0 15 20z"/></svg>