<?xml version="1.0" encoding="utf-8"?>
<!-- Generator: Adobe Illustrator 26.0.2, SVG Export Plug-In . SVG Version: 6.00 Build 0)  -->
<svg version="1.1" id="Layer_1" xmlns="http://www.w3.org/2000/svg" xmlns:xlink="http://www.w3.org/1999/xlink" x="0px" y="0px"
	 viewBox="0 0 1920 1080" style="enable-background:new 0 0 1920 1080;" xml:space="preserve">
<style type="text/css">
	.st0{fill:#444444;}
</style>
<g>
	<path class="st0" d="M1366.9,281.3c-2.3,10.5-3.2,21.3-10,30.1c-16.4,21.2-32.6,42.5-49.1,63.6c-2.9,3.7-4.1,6.6-1.6,11.3
		c3.3,6.1,5.5,12.8,8,19.3c1,2.7,2.3,4.1,5.5,4.6c27.7,4.1,55.3,8.3,82.9,12.8c10.7,1.7,21.3,4,29.7,11.7
		c6.7,6.2,12.7,13.1,14.6,22.1c2,9.5,3.6,19.3,3.7,29c0.4,39.5,0.5,79,0,118.5c-0.2,19.8-6.9,37.3-25,47.6c-7.1,4.1-15.8,6.2-24,7.6
		c-27.4,4.6-54.9,8.4-82.4,12.5c-3.1,0.5-4.9,1.7-6,4.8c-2.1,5.8-4.4,11.5-7,17c-1.5,3.1-1.2,5.3,0.9,7.9
		c15.6,19.5,30.8,39.3,46.6,58.6c8,9.8,14,20.3,15.4,32.9c1.3,11.8-1.3,22.9-8,32.6c-16.8,24-37.4,44.7-58,65.3
		c-17.2,17.2-34.6,34.1-54.9,47.8c-20.1,13.6-43.5,13.2-62.7-1.2c-21.7-16.3-42.9-33.2-64.2-50c-3.3-2.6-5.8-3.3-9.6-1.3
		c-4.4,2.3-9.1,4.2-13.8,5.6c-4.1,1.2-5,3.7-5.6,7.5c-3.6,24-7.2,48.1-11.2,72c-1.4,8.7-3.2,17.4-6.1,25.7
		c-5.1,14.7-14.8,25.8-30.5,29.5c-9.3,2.2-19,3.4-28.6,3.5c-39.7,0.4-79.3,0.4-119,0c-13.7-0.1-26.8-3.2-37.5-12.6
		c-6.8-6-12.8-12.8-14.4-22.1c-3.7-21.5-7.3-43-10.8-64.5c-1.8-11.3-3.3-22.7-5.3-34c-0.3-1.5-2-3.3-3.5-3.9
		c-5.7-2.6-11.7-4.7-17.5-7.2c-2.4-1.1-4-0.8-6.2,0.9c-22.7,17.4-45.5,34.7-68.5,51.9c-20.1,15-48.3,13.6-66.5-3.5
		c-24.6-23.2-49.3-46.3-73.1-70.4c-11.7-11.8-22.3-24.8-31.7-38.4c-7.4-10.6-9.6-23.2-7.2-36.6c2.1-12,8.1-21.6,15.4-30.9
		c14.3-18.2,28.4-36.6,42.7-54.7c2.5-3.2,3.4-5.7,1.4-9.6c-3.3-6.7-6-13.7-8.5-20.7c-1.1-3.1-2.7-4.5-5.9-4.9
		c-27.3-3.9-54.7-7.8-82-12.1c-10.5-1.6-20.9-3.8-29.4-11.3c-7.3-6.5-13.5-13.7-15.3-23.3c-1.8-9.2-3.4-18.7-3.5-28.1
		c-0.4-39.7-0.5-79.3,0-119c0.2-20,7.4-37.5,25.5-47.9c7-4,15.5-5.8,23.6-7.2c27.4-4.5,55-8.3,82.4-12.6c1.8-0.3,4-2.1,4.8-3.8
		c3-6.3,5.3-12.9,8.2-19.2c1.2-2.6,1.2-4.3-0.7-6.7c-16.3-20.4-32.2-41.2-48.8-61.3c-8.2-9.9-13.2-21.2-13.8-33.5
		c-0.5-10.4,2.6-20.7,8.7-29.6c13.1-19,28.8-35.8,45-52.1c20.2-20.5,40.2-41.2,63.8-58.1c9.7-6.9,20.1-11.7,31.6-12.4
		c11-0.6,21.9,2.1,31,9c22.8,17.3,45.5,34.8,68,52.4c3.1,2.4,5.6,3.2,9.3,1.2c4.2-2.3,8.7-4.2,13.3-5.5c4.7-1.3,5.8-4.2,6.4-8.5
		c4-32,8.1-64.1,16.8-95.3c4.5-16.1,14.9-27.5,31.6-31.4c8.7-2,17.7-3.2,26.6-3.3c40-0.3,80-0.4,120,0c13.4,0.1,26.5,3,37.2,12.2
		c7.2,6.2,13.4,13.2,15,22.9c4.1,23.6,7.9,47.2,11.8,70.9c1.5,9.2,2.7,18.4,4.3,27.6c0.2,1.3,1.6,2.8,2.8,3.4
		c6.2,2.7,12.5,5.3,18.9,7.6c1.4,0.5,3.6,0.2,4.8-0.6c21.9-16.3,43.9-32.5,65.3-49.4c17.3-13.6,35.8-16.8,56-8.8
		c6.2,2.5,12.1,6.6,16.9,11.3c26.3,25.5,52.5,51.1,78.2,77.2c8.5,8.6,15.3,18.9,23,28.2C1364.3,260.6,1364.7,271.2,1366.9,281.3z
		 M614.3,799.4c18.6,19,37.1,38.2,55.8,57.2c3.8,3.9,8,7.4,12,11.1c5.7,5.3,11.4,10.6,17,16c2.5,2.4,4.7,2.4,7.6,0.2
		c10.4-8.1,21-15.9,31.5-23.9c13-9.8,26.2-19.4,38.8-29.7c12.7-10.3,25.9-12.8,41.5-5.5c13.8,6.4,27.8,12.3,42.1,17.3
		c13.7,4.8,22.2,13.1,24.3,27.7c2.3,15.6,4.6,31.3,7,46.9c2.8,17.7,5.7,35.3,8.5,53.1c40,0,80.1,0,120.7,0
		c2.3-15.3,4.6-30.4,6.8-45.5c2.4-17,4.9-33.9,6.9-50.9c1.9-15.9,9.6-26.7,25.4-31.5c8.6-2.6,17-6.4,25.3-9.9
		c8.2-3.4,16.2-7.4,24.5-10.5c11.5-4.3,21.7-1.1,31.1,6.2c8.3,6.5,16.8,12.9,25.2,19.4c11.6,9.1,23,18.3,34.6,27.4
		c5.6,4.4,11.3,8.6,17.1,13.1c32.1-27.6,61.3-57.4,88.7-88.8c-5.7-7.2-11.4-14.1-16.8-21.2c-14.6-19-29.1-38.1-43.5-57.2
		c-8.6-11.4-8.4-23.3-2.7-35.9c6.6-14.6,13.5-29.1,18.9-44.2c5.1-14.3,14.2-22.3,29-24.3c11.5-1.5,22.9-3.3,34.3-5
		c12.5-1.9,25.1-3.9,37.6-5.9c8.8-1.4,17.5-2.8,26.1-4.2c0-40.3,0-79.9,0-119.9c-2,0-3.9,0.2-5.6,0c-14-2.2-27.9-4.7-41.9-6.9
		c-17.4-2.8-34.7-5.5-52.1-8c-12-1.7-21-8-24.9-19.2c-6.3-17.9-13.4-35.4-21.9-52.3c-5.4-10.9-6.9-22.7,0.2-33.1
		c11.1-16.1,23.5-31.3,35.4-46.8c7.9-10.4,16-20.6,23.8-31c0.7-1,0.7-3.6-0.1-4.4c-10.7-11.9-21.3-24-32.4-35.4
		c-11.2-11.6-23-22.6-34.6-33.7c-5.9-5.7-12-11.3-17.7-16.7c-12.4,9.3-24.7,18.4-36.9,27.6c-12.8,9.6-25.7,18.9-38.2,28.9
		c-12.3,9.9-24.9,12.4-39.7,6.1c-16.2-6.9-32.7-13.2-48.8-20.2c-4.5-2-8.6-5.3-12-8.8c-7.3-7.5-7.2-17.8-9-27.2
		c-2.2-12.2-3.3-24.6-5.2-36.8c-2.7-17.5-5.6-35-8.5-52.7c-39.9,0-80,0-120.6,0c-2.3,15.2-4.6,30.3-6.8,45.4
		c-2.4,17-4.9,33.9-6.9,50.9c-1.9,16-9.5,26.7-25.3,31.6c-8.8,2.7-17.3,6.4-25.8,10c-8.1,3.3-15.9,7.1-24,10.5
		c-9.4,3.9-18.8,2.4-26.7-3.1c-14.8-10.4-28.9-21.8-43.2-32.9c-12.8-9.9-25.4-19.8-38.4-29.9c-31.7,27.3-60.7,56.8-88.4,88.5
		c4.9,5.9,9.8,11.2,14.1,16.9c15.3,20.1,30.3,40.4,45.6,60.5c9.1,11.9,8.7,24.2,3,37.2c-7.1,16.3-14.3,32.6-20.9,49.1
		c-3.3,8.2-9,13.9-16.7,16.7c-7.1,2.6-14.9,3.2-22.4,4.5c-10.1,1.7-20.3,3.2-30.4,4.7c-9.8,1.5-19.7,2.9-29.5,4.3
		c-8.7,1.3-17.3,2.7-26.2,4.1c0,39,0,77.7,0,116.3c0,2.9,1.4,3.4,4,3.7c7.8,0.8,15.6,1.9,23.3,3c12.4,1.9,24.8,3.9,37.1,5.9
		c12.9,2,25.8,3.7,38.6,6.1c12.1,2.3,19.5,10.2,23,21.8c5,17,12.4,33,20.2,48.8c3.9,7.9,7.3,16.6,3.6,25.4
		c-2.9,6.9-6.8,13.6-11.2,19.6c-9.7,13.3-19.9,26.2-30,39.2C630.8,778.8,622.9,788.6,614.3,799.4z"/>
	<path class="st0" d="M1144,540.3c-0.7,100.7-81.3,186.6-190.5,183.4c-94.8-2.7-180.3-80-177.3-190.3c2.6-94.7,80-180.3,190.4-177.1
		C1062.5,359.1,1143.1,436.5,1144,540.3z M960,663.3c65.1,3.5,124.1-58.2,124.1-123.3c0-65.1-59-124.1-124.1-124.1
		c-65.1,0-124.1,58.9-124.1,124.1C835.9,605.2,894.8,666.9,960,663.3z"/>
</g>
</svg>
